<svg id="Ebene_1" data-name="Ebene 1" xmlns="http://www.w3.org/2000/svg" viewBox="0 0 136.06299 59.52756"><defs><style>.cls-1{fill:#666b6e;}.cls-2{fill:#009ee2;}</style></defs><path class="cls-1" d="M27.16024,34.63143a6.4486,6.4486,0,0,1-2.41421-.44166,5.37325,5.37325,0,0,1-1.87015-1.23589A5.63254,5.63254,0,0,1,21.67431,31.061a6.59454,6.59454,0,0,1-.43115-2.41421A7.84674,7.84674,0,0,1,21.64,26.11916a5.71542,5.71542,0,0,1,1.16781-2.01737A5.37146,5.37146,0,0,1,24.689,22.77514a6.4261,6.4261,0,0,1,2.53929-.476,7.38616,7.38616,0,0,1,2.00631.2723,5.385,5.385,0,0,1,1.72293.82743,4.45216,4.45216,0,0,1,1.23533,1.38255,4.2339,4.2339,0,0,1,.51085,1.59951.322.322,0,0,1-.3188.36141H29.85118a.32147.32147,0,0,1-.31326-.25016,2.13613,2.13613,0,0,0-2.3323-1.76721,2.26946,2.26946,0,0,0-1.29234.35145,2.81589,2.81589,0,0,0-.85067.90657,3.939,3.939,0,0,0-.4638,1.22426,6.64273,6.64273,0,0,0-.13615,1.3261,6.39621,6.39621,0,0,0,.13615,1.29234,4.00489,4.00489,0,0,0,.44166,1.18994,2.5467,2.5467,0,0,0,.82743.87226,2.28012,2.28012,0,0,0,1.26965.34094,2.36719,2.36719,0,0,0,1.77938-.64645,2.9531,2.9531,0,0,0,.73777-1.4783.3211.3211,0,0,1,.31436-.2557h2.459a.32223.32223,0,0,1,.316.38023,5.1798,5.1798,0,0,1-1.75337,3.17909A5.87651,5.87651,0,0,1,27.16024,34.63143Z"/><path class="cls-1" d="M42.78159,34.337a.32147.32147,0,0,1-.32156-.32156V27.71757a4.07232,4.07232,0,0,0-.45329-2.16515,1.76421,1.76421,0,0,0-1.60947-.714,2.24069,2.24069,0,0,0-1.905.7826,4.308,4.308,0,0,0-.58888,2.57249v5.82189a.32148.32148,0,0,1-.32157.32156H35.006a.32148.32148,0,0,1-.32157-.32156v-11.077a.32148.32148,0,0,1,.32157-.32156h2.417a.32147.32147,0,0,1,.32156.32156V24.249h.052l.06863-.06586a3.53762,3.53762,0,0,1,1.53475-1.41908,4.61105,4.61105,0,0,1,1.99468-.46491,5.50879,5.50879,0,0,1,2.11922.3509,3.16151,3.16151,0,0,1,1.304.9752,3.79508,3.79508,0,0,1,.66859,1.51926,9.50228,9.50228,0,0,1,.1926,1.98361v6.8873a.32147.32147,0,0,1-.32156.32156Z"/><path class="cls-1" d="M53.42646,34.63143a6.44859,6.44859,0,0,1-2.4142-.44166,5.37329,5.37329,0,0,1-1.87016-1.23589A5.63254,5.63254,0,0,1,47.94053,31.061a6.59474,6.59474,0,0,1-.43114-2.41421,7.84647,7.84647,0,0,1,.39683-2.52767A5.71527,5.71527,0,0,1,49.074,24.10179a5.37137,5.37137,0,0,1,1.88122-1.32665,6.42607,6.42607,0,0,1,2.53929-.476,7.38609,7.38609,0,0,1,2.0063.2723,5.38518,5.38518,0,0,1,1.72294.82743,4.45228,4.45228,0,0,1,1.23533,1.38255A4.23389,4.23389,0,0,1,58.97,26.381a.322.322,0,0,1-.31879.36141H56.1174a.32148.32148,0,0,1-.31326-.25016A2.13613,2.13613,0,0,0,53.47185,24.725a2.26946,2.26946,0,0,0-1.29234.35145,2.81578,2.81578,0,0,0-.85067.90657,3.93926,3.93926,0,0,0-.46381,1.22426,6.64347,6.64347,0,0,0-.13615,1.3261,6.39693,6.39693,0,0,0,.13615,1.29234,4.00518,4.00518,0,0,0,.44167,1.18994,2.54661,2.54661,0,0,0,.82743.87226,2.28007,2.28007,0,0,0,1.26964.34094,2.36721,2.36721,0,0,0,1.77939-.64645,2.95309,2.95309,0,0,0,.73776-1.4783.32112.32112,0,0,1,.31437-.2557h2.459a.32223.32223,0,0,1,.316.38023A5.17975,5.17975,0,0,1,57.257,33.40772,5.87647,5.87647,0,0,1,53.42646,34.63143Z"/><path class="cls-2" d="M65.89288,34.45045a9.48553,9.48553,0,0,1-1.41687-.10239,3.3214,3.3214,0,0,1-1.17887-.39684,2.068,2.068,0,0,1-.80474-.83905,3.00056,3.00056,0,0,1-.295-1.42738V24.77037H60.56967a.32147.32147,0,0,1-.32156-.32156v-1.5104a.32147.32147,0,0,1,.32156-.32156H62.1974V19.42447a.32148.32148,0,0,1,.32157-.32156h2.57637a.32147.32147,0,0,1,.32156.32156v3.19238h2.03564a.32147.32147,0,0,1,.32156.32156v1.5104a.32147.32147,0,0,1-.32156.32156H65.4169V30.574a1.58632,1.58632,0,0,0,.27175,1.08866,1.587,1.587,0,0,0,1.08811.2712c.18154,0,.35532-.00719.52081-.02269,0,0,.14224-.01439.155-.01439a.32168.32168,0,0,1,.32156.32156V34.0586a.32225.32225,0,0,1-.28393.31934q-.29139.03405-.62264.04982Q66.36859,34.45017,65.89288,34.45045Z"/><path class="cls-2" d="M75.28157,34.63143a6.72851,6.72851,0,0,1-2.49335-.44166,5.19764,5.19764,0,0,1-1.88177-1.25858,5.67635,5.67635,0,0,1-1.19-1.9493A7.16027,7.16027,0,0,1,69.297,28.488a6.86655,6.86655,0,0,1,.43059-2.448,5.6693,5.6693,0,0,1,3.11711-3.26488,6.10347,6.10347,0,0,1,2.43689-.476,5.60047,5.60047,0,0,1,2.60737.57837A5.22547,5.22547,0,0,1,79.71371,24.43a6.42932,6.42932,0,0,1,1.03166,2.22216,8.22069,8.22069,0,0,1,.24131,2.29577.32143.32143,0,0,1-.321.311H72.51592a3.26773,3.26773,0,0,0,.79366,2.267,3.29937,3.29937,0,0,0,3.763.2153,2.283,2.283,0,0,0,.792-.84791.32167.32167,0,0,1,.29-.18375h2.15962a.32179.32179,0,0,1,.3.43668,5.14423,5.14423,0,0,1-1.93214,2.57859A6.164,6.164,0,0,1,75.28157,34.63143Zm2.47122-7.41253a3.73886,3.73886,0,0,0-.80474-1.85909,2.27245,2.27245,0,0,0-1.75724-.63482,2.81388,2.81388,0,0,0-1.28072.26068,2.44368,2.44368,0,0,0-.8158.64589,2.38305,2.38305,0,0,0-.43115.81691,3.68216,3.68216,0,0,0-.14722.77043h5.23687Z"/><path class="cls-2" d="M88.65657,34.63143a6.44864,6.44864,0,0,1-2.41421-.44166,5.37335,5.37335,0,0,1-1.87015-1.23589A5.63254,5.63254,0,0,1,83.17064,31.061a6.59454,6.59454,0,0,1-.43115-2.41421,7.84647,7.84647,0,0,1,.39684-2.52767,5.7154,5.7154,0,0,1,1.1678-2.01737,5.37141,5.37141,0,0,1,1.88123-1.32665,6.42607,6.42607,0,0,1,2.53929-.476,7.38609,7.38609,0,0,1,2.0063.2723,5.385,5.385,0,0,1,1.72293.82743,4.452,4.452,0,0,1,1.23533,1.38255,4.23373,4.23373,0,0,1,.51085,1.59951.322.322,0,0,1-.31879.36141H91.34751a.32148.32148,0,0,1-.31326-.25016A2.13613,2.13613,0,0,0,88.702,24.725a2.26943,2.26943,0,0,0-1.29233.35145,2.81581,2.81581,0,0,0-.85068.90657,3.939,3.939,0,0,0-.4638,1.22426,6.64273,6.64273,0,0,0-.13615,1.3261,6.39693,6.39693,0,0,0,.13615,1.29234,4.00491,4.00491,0,0,0,.44167,1.18994,2.54658,2.54658,0,0,0,.82742.87226,2.28012,2.28012,0,0,0,1.26965.34094,2.36718,2.36718,0,0,0,1.77938-.64645,2.953,2.953,0,0,0,.73777-1.4783.32111.32111,0,0,1,.31437-.2557h2.459a.32223.32223,0,0,1,.316.38023,5.17975,5.17975,0,0,1-1.75337,3.17909A5.87649,5.87649,0,0,1,88.65657,34.63143Z"/><path class="cls-2" d="M104.5671,34.337a.32147.32147,0,0,1-.32156-.32156V27.71757a4.07232,4.07232,0,0,0-.45329-2.16515,1.76421,1.76421,0,0,0-1.60947-.714,2.24069,2.24069,0,0,0-1.905.7826,4.308,4.308,0,0,0-.58889,2.57249v5.82189a.32147.32147,0,0,1-.32156.32156H96.79149a.32147.32147,0,0,1-.32156-.32156V18.47251a.32147.32147,0,0,1,.32156-.32156h2.57582a.32147.32147,0,0,1,.32156.32156V24.249h.052l.06863-.06586a3.55614,3.55614,0,0,1,1.51206-1.41908,4.24049,4.24049,0,0,1,1.85853-.46491,5.50877,5.50877,0,0,1,2.11921.3509,3.16148,3.16148,0,0,1,1.304.9752,3.79522,3.79522,0,0,1,.66859,1.51926,9.503,9.503,0,0,1,.1926,1.98361v6.8873a.32147.32147,0,0,1-.32156.32156Z"/><path d="M113.63117,34.63143a5.78011,5.78011,0,0,1-1.56464-.20367,3.60605,3.60605,0,0,1-1.26909-.63483,2.96266,2.96266,0,0,1-.85012-1.08811,3.68758,3.68758,0,0,1-.30607-1.56408,3.427,3.427,0,0,1,.35145-1.64379,2.9556,2.9556,0,0,1,.90658-1.03165,4.072,4.072,0,0,1,1.26964-.57782,13.57561,13.57561,0,0,1,1.43956-.30607q.72476-.11291,1.42793-.18153a8.64362,8.64362,0,0,0,1.2464-.20368,2.17666,2.17666,0,0,0,.86175-.39683.87414.87414,0,0,0,.295-.75935,1.7057,1.7057,0,0,0-.16991-.828,1.27051,1.27051,0,0,0-.45384-.47653,1.81438,1.81438,0,0,0-.657-.22582,5.4047,5.4047,0,0,0-.80474-.057,2.45115,2.45115,0,0,0-1.496.40845,1.67686,1.67686,0,0,0-.6,1.09531.32116.32116,0,0,1-.316.26455h-2.58523a.32216.32216,0,0,1-.31879-.36307,3.53868,3.53868,0,0,1,.53243-1.51815,3.86473,3.86473,0,0,1,1.26964-1.20157,5.55432,5.55432,0,0,1,1.734-.64644,9.9552,9.9552,0,0,1,1.93823-.19261,13.21463,13.21463,0,0,1,1.791.12508,5.4956,5.4956,0,0,1,1.65486.4876,3.273,3.273,0,0,1,1.22426,1.00786,2.83526,2.83526,0,0,1,.476,1.71186v6.09862a12.32185,12.32185,0,0,0,.09076,1.5187,3.98705,3.98705,0,0,0,.1356.6719.3217.3217,0,0,1-.30717.41621h-2.53763a.32168.32168,0,0,1-.30994-.23688c-.02878-.10461-.05424-.21087-.07527-.3188a4.85332,4.85332,0,0,1-.07915-.57781,4.21879,4.21879,0,0,1-1.8137,1.1108A7.31981,7.31981,0,0,1,113.63117,34.63143Zm3.80838-6.03a1.43639,1.43639,0,0,1-.5114.28337,5.11222,5.11222,0,0,1-.6553.16991q-.35283.06809-.73777.11346c-.25625.03044-.51361.06808-.77042.11346a5.82583,5.82583,0,0,0-.71452.18154,2.11718,2.11718,0,0,0-.61157.30607,1.45944,1.45944,0,0,0-.42008.487,1.5797,1.5797,0,0,0-.15829.74829,1.521,1.521,0,0,0,.15884.72614,1.21307,1.21307,0,0,0,.43.46325,1.84679,1.84679,0,0,0,.63593.23909,4.07551,4.07551,0,0,0,.74773.06753,2.819,2.819,0,0,0,1.47332-.31714,2.13255,2.13255,0,0,0,.77042-.7588,2.4599,2.4599,0,0,0,.30662-.896,6.29709,6.29709,0,0,0,.05645-.72559Z"/><path d="M128.57025,38.7575a7.57361,7.57361,0,0,1-1.75724-.21474,5.62917,5.62917,0,0,1-1.63217-.66914,4.04269,4.04269,0,0,1-1.22426-1.16781,3.25419,3.25419,0,0,1-.51306-1.33993.32164.32164,0,0,1,.31714-.37138H126.357a.32153.32153,0,0,1,.30441.21917,1.74912,1.74912,0,0,0,.82078,1.03886,3.182,3.182,0,0,0,1.51871.35144,2.34463,2.34463,0,0,0,1.98306-.81635,3.2105,3.2105,0,0,0,.60106-2.06221V32.18346h-.03764l-.04095.04871a3.07441,3.07441,0,0,1-1.45118,1.32277,4.83778,4.83778,0,0,1-2.029.44222,5.13053,5.13053,0,0,1-2.267-.46546,4.30637,4.30637,0,0,1-1.56464-1.26965,5.31664,5.31664,0,0,1-.8955-1.88122,8.9415,8.9415,0,0,1-.28337-2.27805,7.34859,7.34859,0,0,1,.32875-2.18784,5.73525,5.73525,0,0,1,.96414-1.85853,4.67011,4.67011,0,0,1,1.57515-1.28127,4.75853,4.75853,0,0,1,2.16515-.476,4.56026,4.56026,0,0,1,2.02955.43059,3.527,3.527,0,0,1,1.46114,1.45119h.04262l.00609-.04484-.00332-1.19769a.32147.32147,0,0,1,.32156-.32156h2.41753a.32147.32147,0,0,1,.32156.32156v10.6503a7.88972,7.88972,0,0,1-.1926,1.60947,3.99952,3.99952,0,0,1-.82743,1.68917,4.94709,4.94709,0,0,1-1.83639,1.3261A7.95467,7.95467,0,0,1,128.57025,38.7575ZM128.842,24.725a2.37387,2.37387,0,0,0-1.16725.27175,2.45856,2.45856,0,0,0-.81636.73721,3.116,3.116,0,0,0-.476,1.06542,5.28438,5.28438,0,0,0-.14722,1.258,6.413,6.413,0,0,0,.12453,1.258,3.423,3.423,0,0,0,.4306,1.123,2.52333,2.52333,0,0,0,.80528.81525,2.28378,2.28378,0,0,0,1.2464.31769,2.56693,2.56693,0,0,0,1.20157-.2723,2.52465,2.52465,0,0,0,.86175-.725,3.235,3.235,0,0,0,.50974-1.03165,4.2975,4.2975,0,0,0,.16991-1.21264,6.702,6.702,0,0,0-.1356-1.37149,3.44819,3.44819,0,0,0-.45384-1.14511,2.36825,2.36825,0,0,0-.8385-.79367A2.669,2.669,0,0,0,128.842,24.725Z"/><path d="M21.47446,44.25493v-.248h.69043V43.212a.82857.82857,0,0,1,.06738-.34864.61828.61828,0,0,1,.18359-.23632.81227.81227,0,0,1,.26953-.13477,1.14968,1.14968,0,0,1,.32618-.04492,2.07451,2.07451,0,0,1,.33789.03711v.248a1.98881,1.98881,0,0,0-.33789-.03808.70037.70037,0,0,0-.40039.10937.4839.4839,0,0,0-.16211.43067v.77246h.80273v.248h-.80273v3.60743h-.28418V44.25493Z"/><path d="M24.24985,44.86236h.02246a.94091.94091,0,0,1,.1914-.35254,1.33485,1.33485,0,0,1,.33692-.28516,1.68116,1.68116,0,0,1,.44336-.18359,1.808,1.808,0,0,1,.50586-.05664v.28515a1.36058,1.36058,0,0,0-.51367.04493,1.26115,1.26115,0,0,0-.55176.33007,2.83086,2.83086,0,0,0-.1836.21778,1.05817,1.05817,0,0,0-.13086.23242,1.4866,1.4866,0,0,0-.083.28515,2.53053,2.53053,0,0,0-.03711.375v2.10743h-.28516V44.00689h.28516Z"/><path d="M28.869,47.09771h-.01465a1.20037,1.20037,0,0,1-.19531.32617,1.37047,1.37047,0,0,1-.31153.27344,1.52641,1.52641,0,0,1-.416.1875,1.82909,1.82909,0,0,1-.50977.06738,1.51211,1.51211,0,0,1-.95312-.26562.98294.98294,0,0,1-.33692-.82129,1.01931,1.01931,0,0,1,.13477-.55176,1.03341,1.03341,0,0,1,.34082-.33789,1.47864,1.47864,0,0,1,.458-.17578,4.59947,4.59947,0,0,1,.4834-.0752l.44238-.03711a2.70726,2.70726,0,0,0,.48437-.07129.61029.61029,0,0,0,.26563-.13476.388.388,0,0,0,.11328-.22168,2.14636,2.14636,0,0,0,.02246-.33789.71052.71052,0,0,0-.06055-.292.661.661,0,0,0-.1875-.24023.93325.93325,0,0,0-.33007-.165,1.76106,1.76106,0,0,0-.49512-.05957,1.29924,1.29924,0,0,0-.83594.25488,1.007,1.007,0,0,0-.34863.77246h-.28516a1.26149,1.26149,0,0,1,.40918-.95605,1.623,1.623,0,0,1,1.07617-.31934,1.54011,1.54011,0,0,1,1.01563.27442.89753.89753,0,0,1,.31933.71582v2.24219c0,.05566.001.11035.00391.165a.509.509,0,0,0,.02637.15039.21918.21918,0,0,0,.07422.10839.23377.23377,0,0,0,.15039.042,1.41422,1.41422,0,0,0,.21-.02246v.23925a.87725.87725,0,0,1-.23242.03028.67836.67836,0,0,1-.27344-.04493.36166.36166,0,0,1-.1543-.12011.44233.44233,0,0,1-.07129-.17578,1.21192,1.21192,0,0,1-.01855-.22168Zm0-1.42578a.54024.54024,0,0,1-.31836.17285,3.86077,3.86077,0,0,1-.47656.06738l-.48047.04492c-.13965.01563-.2793.03614-.41992.06446a1.21829,1.21829,0,0,0-.37891.13867.7737.7737,0,0,0-.27344.26562.818.818,0,0,0-.10449.43946.74867.74867,0,0,0,.26953.63379,1.201,1.201,0,0,0,.74219.206,1.45221,1.45221,0,0,0,.77246-.17676,1.36751,1.36751,0,0,0,.43555-.40429,1.25919,1.25919,0,0,0,.1914-.44336,1.89668,1.89668,0,0,0,.041-.28809Zm-1.80762-2.332v-.77247h.33008v.77247Zm1.18555,0v-.77247h.3291v.77247Z"/><path d="M30.45883,46.58013a1.1855,1.1855,0,0,0,.12012.47559,1.14064,1.14064,0,0,0,.668.57421,1.53505,1.53505,0,0,0,.4873.0752,2.59009,2.59009,0,0,0,.40137-.03418,1.378,1.378,0,0,0,.39746-.124.82507.82507,0,0,0,.30371-.251.66374.66374,0,0,0,.12012-.4082.6057.6057,0,0,0-.19531-.48828,1.3831,1.3831,0,0,0-.49122-.25489,4.98023,4.98023,0,0,0-.63769-.1455,3.35124,3.35124,0,0,1-.6377-.169,1.29958,1.29958,0,0,1-.49121-.31934.9998.9998,0,0,1-.06738-1.08007.96126.96126,0,0,1,.32617-.30371,1.52382,1.52382,0,0,1,.44629-.16114A2.57919,2.57919,0,0,1,31.704,43.917a2.254,2.254,0,0,1,.5625.06739,1.2426,1.2426,0,0,1,.4541.21777,1.04071,1.04071,0,0,1,.2998.38281,1.32557,1.32557,0,0,1,.1084.5625h-.28418a1.06987,1.06987,0,0,0-.08691-.45019.782.782,0,0,0-.24023-.30371,1.06186,1.06186,0,0,0-.36329-.17285,1.74943,1.74943,0,0,0-.45019-.05567,2.1723,2.1723,0,0,0-.39356.03711,1.13647,1.13647,0,0,0-.35644.12793.8011.8011,0,0,0-.25879.23242.6619.6619,0,0,0,.01172.71973.80279.80279,0,0,0,.2959.22851,1.98992,1.98992,0,0,0,.41308.13868c.15235.03515.30567.07031.46094.10546q.28417.05274.53613.124a1.50449,1.50449,0,0,1,.43457.19433.8899.8899,0,0,1,.28907.31934,1.03329,1.03329,0,0,1,.10546.49512.88266.88266,0,0,1-.14257.51758,1.12036,1.12036,0,0,1-.36036.32617,1.5387,1.5387,0,0,1-.48339.17187,2.92112,2.92112,0,0,1-.52149.04883,2.074,2.074,0,0,1-.61133-.08594,1.39076,1.39076,0,0,1-.49121-.26269,1.246,1.246,0,0,1-.33008-.43164,1.46566,1.46566,0,0,1-.12792-.5918Z"/><path d="M34.29965,45.97271v.04492a2.264,2.264,0,0,0,.08985.64453,1.6627,1.6627,0,0,0,.2666.54,1.261,1.261,0,0,0,.44433.36719,1.34594,1.34594,0,0,0,.62012.13574,1.32371,1.32371,0,0,0,.917-.30371,1.59294,1.59294,0,0,0,.4668-.84375h.28516a1.72964,1.72964,0,0,1-.55176,1.03516,1.67608,1.67608,0,0,1-1.1211.35937,1.69938,1.69938,0,0,1-.74609-.15332,1.52358,1.52358,0,0,1-.53223-.41992,1.79262,1.79262,0,0,1-.31933-.62988,2.84512,2.84512,0,0,1-.10449-.78418,2.75675,2.75675,0,0,1,.10839-.77637,1.95878,1.95878,0,0,1,.32618-.65235A1.61712,1.61712,0,0,1,34.993,44.086a1.80856,1.80856,0,0,1,1.48535-.01856,1.49987,1.49987,0,0,1,.52051.40821,1.80818,1.80818,0,0,1,.31934.60058,2.40487,2.40487,0,0,1,.10839.73145c0,.02441-.001.05371-.0039.08594-.002.03222-.00391.05859-.00391.0791Zm2.835-.248a2.35522,2.35522,0,0,0-.10547-.5957,1.49387,1.49387,0,0,0-.2666-.49512,1.33107,1.33107,0,0,0-.42871-.3418,1.26283,1.26283,0,0,0-.57617-.127,1.351,1.351,0,0,0-.6084.13086,1.40185,1.40185,0,0,0-.44433.34473,1.534,1.534,0,0,0-.27735.499,2.3531,2.3531,0,0,0-.12109.585Z"/><path d="M38.34946,44.00689h.28515v.82519h.01465a1.2286,1.2286,0,0,1,.21387-.38574,1.41222,1.41222,0,0,1,.72363-.46875,1.66069,1.66069,0,0,1,.44238-.06055,1.75733,1.75733,0,0,1,.57422.083,1.10185,1.10185,0,0,1,.38574.21778,1.03052,1.03052,0,0,1,.23633.30371,1.40668,1.40668,0,0,1,.124.34082,1.96531,1.96531,0,0,1,.04492.334c.00488.10742.00781.20117.00781.28125v2.38477H41.117v-2.4375c0-.09473-.00781-.21485-.02246-.36035a1.0947,1.0947,0,0,0-.13086-.416.96162.96162,0,0,0-.33007-.34082,1.11714,1.11714,0,0,0-.61133-.14258,1.355,1.355,0,0,0-.585.12012,1.26907,1.26907,0,0,0-.43555.333,1.46484,1.46484,0,0,0-.27344.51074,2.13619,2.13619,0,0,0-.09375.64844v2.085h-.28515Z"/><path class="cls-2" d="M45.02914,42.05279h.24707v6.5h-.24707Z"/><path d="M51.8475,47.03716h-.01465a1.746,1.746,0,0,1-.60058.68652,1.79222,1.79222,0,0,1-1.627.06348,1.46716,1.46716,0,0,1-.51758-.44238,1.90444,1.90444,0,0,1-.29981-.6416,2.90622,2.90622,0,0,1-.09765-.76075,2.94747,2.94747,0,0,1,.10449-.79882,1.83216,1.83216,0,0,1,.31933-.6416,1.52659,1.52659,0,0,1,.53614-.42676,1.69793,1.69793,0,0,1,.75683-.15821,1.65755,1.65755,0,0,1,.458.06446,1.56379,1.56379,0,0,1,.416.18359,1.30159,1.30159,0,0,1,.334.29981,1.33988,1.33988,0,0,1,.21777.40527h.01465V42.50689h.28516v5.35547H51.8475Zm-1.43261.668a1.26534,1.26534,0,0,0,.63379-.15039,1.33937,1.33937,0,0,0,.44238-.39746,1.76473,1.76473,0,0,0,.26269-.56641,2.46361,2.46361,0,0,0,.08594-.64844,2.50051,2.50051,0,0,0-.08594-.65625,1.85292,1.85292,0,0,0-.25879-.57031,1.28926,1.28926,0,0,0-.44628-.40136,1.3195,1.3195,0,0,0-.64161-.14942,1.35243,1.35243,0,0,0-.65234.14649,1.3005,1.3005,0,0,0-.44629.39355,1.652,1.652,0,0,0-.25488.56934,2.7974,2.7974,0,0,0-.07813.668,2.5004,2.5004,0,0,0,.08594.65625,1.74433,1.74433,0,0,0,.2627.56641,1.29289,1.29289,0,0,0,.44628.39356A1.33147,1.33147,0,0,0,50.41489,47.70513Z"/><path d="M53.58676,44.86236h.02246a.94094.94094,0,0,1,.19141-.35254,1.335,1.335,0,0,1,.33691-.28516,1.6813,1.6813,0,0,1,.44336-.18359,1.80808,1.80808,0,0,1,.50586-.05664v.28515a1.36058,1.36058,0,0,0-.51367.04493,1.26121,1.26121,0,0,0-.55176.33007,2.83061,2.83061,0,0,0-.18359.21778,1.05735,1.05735,0,0,0-.13086.23242,1.48659,1.48659,0,0,0-.083.28515,2.53053,2.53053,0,0,0-.03711.375v2.10743H53.3016V44.00689h.28516Z"/><path d="M55.66489,45.97271v.04492a2.264,2.264,0,0,0,.08984.64453,1.6629,1.6629,0,0,0,.2666.54,1.26116,1.26116,0,0,0,.44434.36719,1.34587,1.34587,0,0,0,.62011.13574,1.32373,1.32373,0,0,0,.917-.30371,1.593,1.593,0,0,0,.46679-.84375h.28516a1.72953,1.72953,0,0,1-.55176,1.03516,1.676,1.676,0,0,1-1.12109.35937,1.69942,1.69942,0,0,1-.7461-.15332,1.52355,1.52355,0,0,1-.53222-.41992,1.79247,1.79247,0,0,1-.31934-.62988,2.8455,2.8455,0,0,1-.10449-.78418,2.75639,2.75639,0,0,1,.1084-.77637,1.95876,1.95876,0,0,1,.32617-.65235,1.61715,1.61715,0,0,1,.54395-.45019,1.80856,1.80856,0,0,1,1.48535-.01856,1.49974,1.49974,0,0,1,.5205.40821,1.808,1.808,0,0,1,.31934.60058,2.40457,2.40457,0,0,1,.1084.73145c0,.02441-.001.05371-.00391.08594-.002.03222-.0039.05859-.0039.0791Zm2.835-.248a2.35567,2.35567,0,0,0-.10547-.5957,1.49423,1.49423,0,0,0-.2666-.49512,1.33129,1.33129,0,0,0-.42871-.3418,1.2629,1.2629,0,0,0-.57618-.127,1.351,1.351,0,0,0-.60839.13086,1.40178,1.40178,0,0,0-.44434.34473,1.53394,1.53394,0,0,0-.27734.499,2.35357,2.35357,0,0,0-.1211.585Z"/><path d="M59.99985,42.50689v2.32519h.01465a1.22858,1.22858,0,0,1,.21386-.38574,1.41231,1.41231,0,0,1,.72364-.46875,1.66058,1.66058,0,0,1,.44238-.06055,1.75742,1.75742,0,0,1,.57422.083,1.102,1.102,0,0,1,.38574.21778,1.03069,1.03069,0,0,1,.23633.30371,1.40706,1.40706,0,0,1,.124.34082,1.96531,1.96531,0,0,1,.04492.334c.00489.10742.00782.20117.00782.28125v2.38477h-.28516v-2.4375c0-.09473-.00781-.21485-.02246-.36035a1.09505,1.09505,0,0,0-.13086-.416.96165.96165,0,0,0-.33008-.34082,1.11712,1.11712,0,0,0-.61133-.14258,1.35505,1.35505,0,0,0-.585.12012,1.26907,1.26907,0,0,0-.43555.333,1.465,1.465,0,0,0-.27343.51074,2.13619,2.13619,0,0,0-.09375.64844v2.085h-.28516V42.50689Z"/><path d="M63.97543,45.97271v.04492a2.264,2.264,0,0,0,.08985.64453,1.6627,1.6627,0,0,0,.2666.54,1.261,1.261,0,0,0,.44433.36719,1.339,1.339,0,0,0,.61914.13574,1.32373,1.32373,0,0,0,.917-.30371,1.593,1.593,0,0,0,.46679-.84375h.28516a1.72953,1.72953,0,0,1-.55176,1.03516,1.9123,1.9123,0,0,1-1.86621.206,1.52358,1.52358,0,0,1-.53223-.41992,1.79262,1.79262,0,0,1-.31933-.62988,2.84512,2.84512,0,0,1-.10449-.78418,2.75639,2.75639,0,0,1,.1084-.77637,1.95876,1.95876,0,0,1,.32617-.65235,1.61712,1.61712,0,0,1,.54394-.45019,1.80632,1.80632,0,0,1,1.48438-.01856,1.49987,1.49987,0,0,1,.52051.40821,1.80816,1.80816,0,0,1,.31933.60058,2.40457,2.40457,0,0,1,.1084.73145c0,.02441-.001.05371-.00391.08594-.00195.03222-.0039.05859-.0039.0791Zm2.834-.248a2.35522,2.35522,0,0,0-.10547-.5957,1.49423,1.49423,0,0,0-.2666-.49512,1.33129,1.33129,0,0,0-.42871-.3418,1.2629,1.2629,0,0,0-.57618-.127,1.34387,1.34387,0,0,0-.60742.13086,1.40185,1.40185,0,0,0-.44433.34473,1.53414,1.53414,0,0,0-.27735.499,2.3531,2.3531,0,0,0-.12109.585Z"/><path d="M68.02328,44.00689h.28516v.82519h.01465a1.2284,1.2284,0,0,1,.21387-.38574,1.41222,1.41222,0,0,1,.72363-.46875A1.66069,1.66069,0,0,1,69.703,43.917a1.75738,1.75738,0,0,1,.57422.083,1.10194,1.10194,0,0,1,.38574.21778,1.03069,1.03069,0,0,1,.23633.30371,1.40664,1.40664,0,0,1,.124.34082,1.96535,1.96535,0,0,1,.04493.334c.00488.10742.00781.20117.00781.28125v2.38477h-.28516v-2.4375c0-.09473-.00781-.21485-.02246-.36035a1.09488,1.09488,0,0,0-.13086-.416.96157.96157,0,0,0-.33008-.34082,1.1171,1.1171,0,0,0-.61132-.14258,1.355,1.355,0,0,0-.585.12012,1.269,1.269,0,0,0-.43555.333,1.46484,1.46484,0,0,0-.27344.51074,2.13619,2.13619,0,0,0-.09375.64844v2.085h-.28516Z"/><path class="cls-2" d="M74.704,42.05279H74.951v6.5H74.704Z"/><path d="M78.67856,46.58013a1.18534,1.18534,0,0,0,.12012.47559,1.14066,1.14066,0,0,0,.668.57421,1.53512,1.53512,0,0,0,.48731.0752,2.59009,2.59009,0,0,0,.40137-.03418,1.3781,1.3781,0,0,0,.39746-.124.82507.82507,0,0,0,.30371-.251.66374.66374,0,0,0,.12011-.4082.60567.60567,0,0,0-.19531-.48828,1.383,1.383,0,0,0-.49121-.25489,4.98023,4.98023,0,0,0-.63769-.1455,3.351,3.351,0,0,1-.6377-.169,1.2995,1.2995,0,0,1-.49121-.31934.99974.99974,0,0,1-.06738-1.08007.96117.96117,0,0,1,.32617-.30371,1.52382,1.52382,0,0,1,.44629-.16114,2.57919,2.57919,0,0,1,.49512-.04883,2.254,2.254,0,0,1,.5625.06739,1.2426,1.2426,0,0,1,.4541.21777,1.04071,1.04071,0,0,1,.2998.38281,1.32557,1.32557,0,0,1,.1084.5625H81.0643a1.07,1.07,0,0,0-.08691-.45019.7819.7819,0,0,0-.24024-.30371,1.06181,1.06181,0,0,0-.36328-.17285,1.74948,1.74948,0,0,0-.45019-.05567,2.17213,2.17213,0,0,0-.39356.03711,1.13638,1.13638,0,0,0-.35644.12793.801.801,0,0,0-.25879.23242.57962.57962,0,0,0-.10059.34473.58551.58551,0,0,0,.1123.375.80287.80287,0,0,0,.2959.22851,1.99021,1.99021,0,0,0,.41309.13868c.15234.03515.30566.07031.46094.10546q.28417.05274.53613.124a1.50461,1.50461,0,0,1,.43457.19433.88978.88978,0,0,1,.28906.31934,1.03329,1.03329,0,0,1,.10547.49512.88259.88259,0,0,1-.14258.51758,1.12032,1.12032,0,0,1-.36035.32617,1.53876,1.53876,0,0,1-.4834.17187,2.92093,2.92093,0,0,1-.52148.04883,2.07392,2.07392,0,0,1-.61133-.08594,1.39076,1.39076,0,0,1-.49121-.26269,1.246,1.246,0,0,1-.33008-.43164,1.46566,1.46566,0,0,1-.12793-.5918Z"/><path d="M85.31625,45.20025a1.11277,1.11277,0,0,0-.13086-.4502.99643.99643,0,0,0-.28125-.32226,1.28039,1.28039,0,0,0-.40136-.19532,1.731,1.731,0,0,0-.49121-.06738,1.34413,1.34413,0,0,0-.6377.14649,1.40361,1.40361,0,0,0-.46484.38964,1.77713,1.77713,0,0,0-.28516.55469,2.15643,2.15643,0,0,0-.09766.6416,2.746,2.746,0,0,0,.08985.71973,1.65539,1.65539,0,0,0,.27832.57422,1.2869,1.2869,0,0,0,.46484.37793,1.46293,1.46293,0,0,0,.65235.13574,1.36505,1.36505,0,0,0,.499-.08984,1.33387,1.33387,0,0,0,.4043-.248,1.26834,1.26834,0,0,0,.28906-.37891,1.54443,1.54443,0,0,0,.15039-.4834h.28418a1.78625,1.78625,0,0,1-.1875.61524,1.50343,1.50343,0,0,1-.35938.45312,1.55158,1.55158,0,0,1-.49511.28125,1.74294,1.74294,0,0,1-.585.09766,1.76093,1.76093,0,0,1-.80664-.16894,1.54215,1.54215,0,0,1-.54688-.45313,1.931,1.931,0,0,1-.31543-.65625,2.94889,2.94889,0,0,1-.10156-.77637,2.48773,2.48773,0,0,1,.11621-.76562,1.88814,1.88814,0,0,1,.3418-.62988,1.62151,1.62151,0,0,1,.55468-.42676,1.73213,1.73213,0,0,1,.75782-.15821,2.11373,2.11373,0,0,1,.58886.07911,1.51782,1.51782,0,0,1,.48731.23632,1.21874,1.21874,0,0,1,.34863.40137,1.42374,1.42374,0,0,1,.165.56641Z"/><path d="M86.85434,42.50689v2.32519H86.869a1.22858,1.22858,0,0,1,.21386-.38574,1.41231,1.41231,0,0,1,.72364-.46875,1.66069,1.66069,0,0,1,.44238-.06055,1.75738,1.75738,0,0,1,.57422.083,1.10194,1.10194,0,0,1,.38574.21778,1.03069,1.03069,0,0,1,.23633.30371,1.40664,1.40664,0,0,1,.124.34082,1.96531,1.96531,0,0,1,.04492.334c.00489.10742.00782.20117.00782.28125v2.38477h-.28516v-2.4375c0-.09473-.00781-.21485-.02246-.36035a1.09488,1.09488,0,0,0-.13086-.416.96165.96165,0,0,0-.33008-.34082,1.11712,1.11712,0,0,0-.61133-.14258,1.35509,1.35509,0,0,0-.585.12012,1.26894,1.26894,0,0,0-.43554.333,1.46484,1.46484,0,0,0-.27344.51074,2.13619,2.13619,0,0,0-.09375.64844v2.085h-.28516V42.50689Z"/><path d="M91.076,42.50689v5.35547h-.28516V42.50689Z"/><path d="M92.35141,45.97271v.04492a2.26436,2.26436,0,0,0,.08984.64453,1.6631,1.6631,0,0,0,.2666.54,1.26116,1.26116,0,0,0,.44434.36719,1.34594,1.34594,0,0,0,.62012.13574,1.32372,1.32372,0,0,0,.917-.30371,1.59294,1.59294,0,0,0,.4668-.84375h.28515a1.72957,1.72957,0,0,1-.55175,1.03516,1.67608,1.67608,0,0,1-1.1211.35937,1.69938,1.69938,0,0,1-.74609-.15332,1.52358,1.52358,0,0,1-.53223-.41992,1.79245,1.79245,0,0,1-.31933-.62988,2.84512,2.84512,0,0,1-.1045-.78418,2.75675,2.75675,0,0,1,.1084-.77637,1.959,1.959,0,0,1,.32617-.65235,1.61725,1.61725,0,0,1,.54395-.45019,1.80856,1.80856,0,0,1,1.48535-.01856,1.49987,1.49987,0,0,1,.52051.40821,1.80816,1.80816,0,0,1,.31933.60058,2.40457,2.40457,0,0,1,.1084.73145c0,.02441-.001.05371-.0039.08594-.002.03222-.00391.05859-.00391.0791Zm2.835-.248a2.35522,2.35522,0,0,0-.10547-.5957,1.49405,1.49405,0,0,0-.2666-.49512,1.33107,1.33107,0,0,0-.42871-.3418,1.26286,1.26286,0,0,0-.57617-.127,1.351,1.351,0,0,0-.6084.13086,1.402,1.402,0,0,0-.44434.34473,1.53412,1.53412,0,0,0-.27734.499,2.3531,2.3531,0,0,0-.12109.585Z"/><path d="M96.4686,43.28033v-.77344h.28515v.77344Zm0,4.582V44.00689h.28515v3.85547Z"/><path d="M97.50375,44.25493v-.248h.69043V43.212a.82841.82841,0,0,1,.06739-.34864.61818.61818,0,0,1,.18359-.23632.81227.81227,0,0,1,.26953-.13477,1.14961,1.14961,0,0,1,.32617-.04492,2.07451,2.07451,0,0,1,.33789.03711v.248a1.98881,1.98881,0,0,0-.33789-.03808.7004.7004,0,0,0-.40039.10937.4839.4839,0,0,0-.16211.43067v.77246h.80274v.248h-.80274v3.60743h-.28418V44.25493Z"/><path d="M100.09946,45.97271v.04492a2.264,2.264,0,0,0,.08984.64453,1.6629,1.6629,0,0,0,.2666.54,1.26116,1.26116,0,0,0,.44434.36719,1.34587,1.34587,0,0,0,.62011.13574,1.32373,1.32373,0,0,0,.917-.30371,1.593,1.593,0,0,0,.46679-.84375h.28516a1.72953,1.72953,0,0,1-.55176,1.03516,1.676,1.676,0,0,1-1.12109.35937,1.69942,1.69942,0,0,1-.7461-.15332,1.52355,1.52355,0,0,1-.53222-.41992,1.79247,1.79247,0,0,1-.31934-.62988,2.8455,2.8455,0,0,1-.10449-.78418,2.75639,2.75639,0,0,1,.1084-.77637,1.95876,1.95876,0,0,1,.32617-.65235,1.61715,1.61715,0,0,1,.544-.45019,1.80856,1.80856,0,0,1,1.48535-.01856,1.49987,1.49987,0,0,1,.52051.40821,1.80816,1.80816,0,0,1,.31933.60058,2.40457,2.40457,0,0,1,.1084.73145c0,.02441-.001.05371-.00391.08594-.00195.03222-.0039.05859-.0039.0791Zm2.835-.248a2.35522,2.35522,0,0,0-.10547-.5957,1.49423,1.49423,0,0,0-.2666-.49512,1.33129,1.33129,0,0,0-.42871-.3418,1.2629,1.2629,0,0,0-.57618-.127,1.351,1.351,0,0,0-.60839.13086,1.40178,1.40178,0,0,0-.44434.34473,1.53394,1.53394,0,0,0-.27734.499,2.35357,2.35357,0,0,0-.1211.585Z"/><path d="M104.14828,44.00689h.28516v.82519h.01465a1.2284,1.2284,0,0,1,.21387-.38574,1.41222,1.41222,0,0,1,.72363-.46875,1.66069,1.66069,0,0,1,.44238-.06055,1.75738,1.75738,0,0,1,.57422.083,1.10194,1.10194,0,0,1,.38574.21778,1.03069,1.03069,0,0,1,.23633.30371,1.40664,1.40664,0,0,1,.124.34082,1.96535,1.96535,0,0,1,.04493.334c.00488.10742.00781.20117.00781.28125v2.38477h-.28516v-2.4375c0-.09473-.00781-.21485-.02246-.36035a1.09488,1.09488,0,0,0-.13086-.416.96157.96157,0,0,0-.33008-.34082,1.1171,1.1171,0,0,0-.61132-.14258,1.355,1.355,0,0,0-.585.12012,1.269,1.269,0,0,0-.43555.333,1.46484,1.46484,0,0,0-.27344.51074,2.13619,2.13619,0,0,0-.09375.64844v2.085h-.28516Z"/><path d="M21.99985,55.47173v.04492a2.264,2.264,0,0,0,.08984.64453,1.6628,1.6628,0,0,0,.2666.54,1.261,1.261,0,0,0,.44434.36719,1.34588,1.34588,0,0,0,.62012.13574,1.32372,1.32372,0,0,0,.917-.30371,1.59292,1.59292,0,0,0,.46679-.84375h.28516a1.72953,1.72953,0,0,1-.55176,1.03516,1.676,1.676,0,0,1-1.12109.35937,1.69935,1.69935,0,0,1-.74609-.15332,1.52349,1.52349,0,0,1-.53223-.41992,1.79246,1.79246,0,0,1-.31934-.62988,2.8455,2.8455,0,0,1-.10449-.78418,2.75639,2.75639,0,0,1,.1084-.77637,1.95871,1.95871,0,0,1,.32617-.65234,1.62588,1.62588,0,0,1,.54395-.44922,1.80856,1.80856,0,0,1,1.48535-.01856,1.50883,1.50883,0,0,1,.52051.40723,1.8082,1.8082,0,0,1,.31933.60059,2.40455,2.40455,0,0,1,.1084.73144c0,.02442-.001.05371-.00391.08594-.002.03223-.0039.05859-.0039.0791Zm2.835-.248a2.35522,2.35522,0,0,0-.10547-.5957,1.49405,1.49405,0,0,0-.2666-.49512A1.31549,1.31549,0,0,0,24.034,53.792a1.26287,1.26287,0,0,0-.57618-.127,1.351,1.351,0,0,0-.60839.13086,1.38537,1.38537,0,0,0-.44434.34375,1.53394,1.53394,0,0,0-.27734.499,2.35357,2.35357,0,0,0-.1211.585Z"/><path d="M26.33481,54.36138h.02246a.94094.94094,0,0,1,.19141-.35254,1.33132,1.33132,0,0,1,.33691-.28418,1.68116,1.68116,0,0,1,.44336-.18359,1.808,1.808,0,0,1,.50586-.05664v.28515a1.36058,1.36058,0,0,0-.51367.04493,1.25849,1.25849,0,0,0-.55176.3291,2.8308,2.8308,0,0,0-.1836.21777,1.05773,1.05773,0,0,0-.13085.23242,1.48649,1.48649,0,0,0-.083.28516,2.53025,2.53025,0,0,0-.03711.375v2.10742h-.28516V53.50689h.28516Z"/><path d="M28.1268,55.43365a2.52307,2.52307,0,0,1,.11621-.77637,1.94831,1.94831,0,0,1,.34082-.64063,1.63512,1.63512,0,0,1,.55567-.43847,1.86018,1.86018,0,0,1,1.51464,0,1.63151,1.63151,0,0,1,.55469.43847,1.95034,1.95034,0,0,1,.3418.64063,2.5526,2.5526,0,0,1,.11621.77637,2.58274,2.58274,0,0,1-.11621.78027,1.9075,1.9075,0,0,1-.3418.6416,1.63282,1.63282,0,0,1-.55469.43457,1.86029,1.86029,0,0,1-1.51464,0,1.63647,1.63647,0,0,1-.55567-.43457,1.9056,1.9056,0,0,1-.34082-.6416A2.55279,2.55279,0,0,1,28.1268,55.43365Zm.28516,0a2.27567,2.27567,0,0,0,.09668.66406,1.80706,1.80706,0,0,0,.28515.5664,1.39211,1.39211,0,0,0,.46485.39356,1.46133,1.46133,0,0,0,1.27539,0,1.39208,1.39208,0,0,0,.46484-.39356,1.80708,1.80708,0,0,0,.28516-.5664,2.30347,2.30347,0,0,0,0-1.32715,1.80725,1.80725,0,0,0-.28516-.56641,1.367,1.367,0,0,0-.46484-.39257,1.46124,1.46124,0,0,0-1.27539,0,1.36707,1.36707,0,0,0-.46485.39257,1.80723,1.80723,0,0,0-.28515.56641A2.269,2.269,0,0,0,28.412,55.43365Z"/><path d="M35.57407,56.53618h-.01465a1.74608,1.74608,0,0,1-.60059.68653,1.79225,1.79225,0,0,1-1.627.06347,1.46733,1.46733,0,0,1-.51758-.44238,1.90423,1.90423,0,0,1-.2998-.6416,2.90614,2.90614,0,0,1-.09766-.76074,2.94788,2.94788,0,0,1,.10449-.79883,1.832,1.832,0,0,1,.31934-.6416,1.53515,1.53515,0,0,1,.53613-.42578,1.698,1.698,0,0,1,.75684-.15821,1.65754,1.65754,0,0,1,.458.06446,1.56365,1.56365,0,0,1,.416.18359,1.31581,1.31581,0,0,1,.334.29883,1.34,1.34,0,0,1,.21778.40527h.01465v-2.3623h.28515v5.35449h-.28515Zm-1.43262.668a1.26532,1.26532,0,0,0,.63379-.15039,1.33937,1.33937,0,0,0,.44238-.39746,1.76491,1.76491,0,0,0,.2627-.5664,2.46413,2.46413,0,0,0,.08593-.64844,2.50081,2.50081,0,0,0-.08593-.65625,1.85328,1.85328,0,0,0-.25879-.57031,1.27705,1.27705,0,0,0-.44629-.40039,1.31949,1.31949,0,0,0-.6416-.14942,1.35247,1.35247,0,0,0-.65235.14649,1.28779,1.28779,0,0,0-.44629.39257,1.65224,1.65224,0,0,0-.25488.56934,2.79793,2.79793,0,0,0-.07812.668,2.50081,2.50081,0,0,0,.08593.65625,1.74428,1.74428,0,0,0,.2627.5664,1.29292,1.29292,0,0,0,.44629.39356A1.33129,1.33129,0,0,0,34.14145,57.20415Z"/><path d="M37.09653,52.78033v-.77344h.28515v.77344Zm0,4.581V53.50689h.28515v3.85449Z"/><path d="M38.65707,55.47173v.04492a2.264,2.264,0,0,0,.08985.64453,1.6626,1.6626,0,0,0,.2666.54,1.26083,1.26083,0,0,0,.44433.36719,1.34594,1.34594,0,0,0,.62012.13574,1.32371,1.32371,0,0,0,.917-.30371,1.59286,1.59286,0,0,0,.4668-.84375h.28516a1.72953,1.72953,0,0,1-.55176,1.03516,1.676,1.676,0,0,1-1.12109.35937,1.69939,1.69939,0,0,1-.7461-.15332,1.52346,1.52346,0,0,1-.53222-.41992,1.7923,1.7923,0,0,1-.31934-.62988,2.84512,2.84512,0,0,1-.10449-.78418,2.75639,2.75639,0,0,1,.1084-.77637,1.95871,1.95871,0,0,1,.32617-.65234,1.62594,1.62594,0,0,1,.54394-.44922,1.80856,1.80856,0,0,1,1.48535-.01856,1.50873,1.50873,0,0,1,.52051.40723,1.80823,1.80823,0,0,1,.31934.60059,2.40486,2.40486,0,0,1,.1084.73144c0,.02442-.001.05371-.00391.08594-.00195.03223-.00391.05859-.00391.0791Zm2.835-.248a2.35522,2.35522,0,0,0-.10546-.5957,1.49407,1.49407,0,0,0-.26661-.49512,1.31538,1.31538,0,0,0-.42871-.34082,1.26283,1.26283,0,0,0-.57617-.127,1.351,1.351,0,0,0-.6084.13086,1.38533,1.38533,0,0,0-.44433.34375,1.53414,1.53414,0,0,0-.27735.499,2.3531,2.3531,0,0,0-.12109.585Z"/><path d="M42.992,54.36138h.02247a.94091.94091,0,0,1,.1914-.35254,1.33155,1.33155,0,0,1,.33692-.28418,1.68116,1.68116,0,0,1,.44336-.18359,1.808,1.808,0,0,1,.50585-.05664v.28515a1.36059,1.36059,0,0,0-.51367.04493,1.2586,1.2586,0,0,0-.55176.3291,2.83283,2.83283,0,0,0-.18359.21777,1.05817,1.05817,0,0,0-.13086.23242,1.4872,1.4872,0,0,0-.083.28516,2.53159,2.53159,0,0,0-.03711.375v2.10742h-.28515V53.50689H42.992Z"/><path d="M45.07016,55.47173v.04492a2.26431,2.26431,0,0,0,.08984.64453,1.663,1.663,0,0,0,.2666.54,1.261,1.261,0,0,0,.44434.36719,1.34594,1.34594,0,0,0,.62012.13574,1.32372,1.32372,0,0,0,.917-.30371,1.59286,1.59286,0,0,0,.4668-.84375H48.16a1.72957,1.72957,0,0,1-.55175,1.03516,1.676,1.676,0,0,1-1.1211.35937,1.69938,1.69938,0,0,1-.74609-.15332,1.52358,1.52358,0,0,1-.53223-.41992,1.79228,1.79228,0,0,1-.31933-.62988,2.84512,2.84512,0,0,1-.1045-.78418,2.75675,2.75675,0,0,1,.1084-.77637,1.9589,1.9589,0,0,1,.32617-.65234,1.626,1.626,0,0,1,.544-.44922,1.80856,1.80856,0,0,1,1.48535-.01856,1.50883,1.50883,0,0,1,.52051.40723,1.8082,1.8082,0,0,1,.31933.60059,2.40455,2.40455,0,0,1,.1084.73144c0,.02442-.001.05371-.0039.08594-.002.03223-.00391.05859-.00391.0791Zm2.835-.248a2.35522,2.35522,0,0,0-.10547-.5957,1.49405,1.49405,0,0,0-.2666-.49512,1.31538,1.31538,0,0,0-.42871-.34082,1.26286,1.26286,0,0,0-.57617-.127,1.351,1.351,0,0,0-.6084.13086,1.38548,1.38548,0,0,0-.44434.34375,1.53412,1.53412,0,0,0-.27734.499,2.3531,2.3531,0,0,0-.12109.585Z"/><path d="M49.119,53.50689h.28515v.82422h.01465a1.22885,1.22885,0,0,1,.21387-.38575,1.46239,1.46239,0,0,1,.32227-.28808,1.43059,1.43059,0,0,1,.40136-.17969,1.66071,1.66071,0,0,1,.44239-.06055,1.75731,1.75731,0,0,1,.57421.083,1.102,1.102,0,0,1,.38575.21778,1.02681,1.02681,0,0,1,.23632.30273,1.40683,1.40683,0,0,1,.124.34082,1.96531,1.96531,0,0,1,.04492.334c.00488.10743.00781.20118.00781.28125v2.38477h-.28515v-2.4375c0-.09473-.00782-.21484-.02247-.36035a1.095,1.095,0,0,0-.13085-.416.95154.95154,0,0,0-.33008-.33984,1.11714,1.11714,0,0,0-.61133-.14258,1.35505,1.35505,0,0,0-.585.12012,1.26638,1.26638,0,0,0-.43555.332,1.46493,1.46493,0,0,0-.27344.51074,2.13628,2.13628,0,0,0-.09375.64844v2.085H49.119Z"/><path class="cls-2" d="M55.79965,51.55279h.24707v6.499h-.24707Z"/><path d="M59.64731,53.50689h.28515V54.294h.01465a1.04059,1.04059,0,0,1,.15723-.3418,1.22391,1.22391,0,0,1,.27441-.28027,1.33768,1.33768,0,0,1,.35938-.1875,1.28957,1.28957,0,0,1,.416-.06739,1.465,1.465,0,0,1,.48047.07129,1.15057,1.15057,0,0,1,.34473.1875.96164.96164,0,0,1,.22559.26172,1.02852,1.02852,0,0,1,.1123.2959h.01465a1.39009,1.39009,0,0,1,.46191-.60937,1.278,1.278,0,0,1,.76074-.207,1.42589,1.42589,0,0,1,.4834.07911,1.01979,1.01979,0,0,1,.38282.24023,1.08663,1.08663,0,0,1,.251.40723,1.69991,1.69991,0,0,1,.09082.585v2.63281h-.28515V54.72173a1.23466,1.23466,0,0,0-.11329-.57812.87944.87944,0,0,0-.26562-.31739.75829.75829,0,0,0-.30762-.13476,1.514,1.514,0,0,0-.23633-.02637,1.26035,1.26035,0,0,0-.48339.08984,1.02939,1.02939,0,0,0-.38282.26856,1.26915,1.26915,0,0,0-.251.44629,1.895,1.895,0,0,0-.08985.61133v2.28027h-.28515V54.72173a1.2657,1.2657,0,0,0-.10938-.57422.84092.84092,0,0,0-.25488-.31738.76989.76989,0,0,0-.29981-.13574,1.37827,1.37827,0,0,0-.24414-.0293,1.20464,1.20464,0,0,0-.81738.33594,1.29436,1.29436,0,0,0-.292.44238,1.6501,1.6501,0,0,0-.11231.6377v2.28027h-.28515Z"/><path d="M65.97641,55.47173v.04492a2.26431,2.26431,0,0,0,.08984.64453,1.663,1.663,0,0,0,.2666.54,1.261,1.261,0,0,0,.44434.36719,1.34594,1.34594,0,0,0,.62012.13574,1.32372,1.32372,0,0,0,.917-.30371,1.59286,1.59286,0,0,0,.4668-.84375h.28515a1.72957,1.72957,0,0,1-.55175,1.03516,1.676,1.676,0,0,1-1.1211.35937,1.69938,1.69938,0,0,1-.74609-.15332,1.52358,1.52358,0,0,1-.53223-.41992,1.79228,1.79228,0,0,1-.31933-.62988,2.84512,2.84512,0,0,1-.1045-.78418,2.75675,2.75675,0,0,1,.1084-.77637,1.9589,1.9589,0,0,1,.32617-.65234,1.626,1.626,0,0,1,.54395-.44922,1.80856,1.80856,0,0,1,1.48535-.01856,1.50883,1.50883,0,0,1,.52051.40723,1.8082,1.8082,0,0,1,.31933.60059,2.40455,2.40455,0,0,1,.1084.73144c0,.02442-.001.05371-.0039.08594-.002.03223-.00391.05859-.00391.0791Zm2.835-.248a2.35522,2.35522,0,0,0-.10547-.5957,1.49405,1.49405,0,0,0-.2666-.49512,1.31538,1.31538,0,0,0-.42871-.34082,1.26286,1.26286,0,0,0-.57617-.127,1.351,1.351,0,0,0-.6084.13086,1.38548,1.38548,0,0,0-.44434.34375,1.53412,1.53412,0,0,0-.27734.499,2.3531,2.3531,0,0,0-.12109.585Z"/><path d="M70.161,56.07915a1.18534,1.18534,0,0,0,.12012.47559,1.1407,1.1407,0,0,0,.668.57422,1.53534,1.53534,0,0,0,.4873.07519,2.59009,2.59009,0,0,0,.40137-.03418,1.37769,1.37769,0,0,0,.39746-.124.825.825,0,0,0,.30371-.251.66374.66374,0,0,0,.12012-.4082.60569.60569,0,0,0-.19532-.48828,1.3828,1.3828,0,0,0-.49121-.25488,4.98189,4.98189,0,0,0-.63769-.14551,3.351,3.351,0,0,1-.6377-.169,1.29948,1.29948,0,0,1-.49121-.31933.99981.99981,0,0,1-.06738-1.08008.968.968,0,0,1,.32617-.30273,1.52382,1.52382,0,0,1,.44629-.16114,2.57919,2.57919,0,0,1,.49512-.04883,2.254,2.254,0,0,1,.5625.06739,1.2426,1.2426,0,0,1,.4541.21777,1.03726,1.03726,0,0,1,.2998.38184,1.3255,1.3255,0,0,1,.1084.5625h-.28418a1.06989,1.06989,0,0,0-.08691-.4502.7819.7819,0,0,0-.24024-.30371,1.07863,1.07863,0,0,0-.36328-.17187,1.74948,1.74948,0,0,0-.45019-.05567,2.17213,2.17213,0,0,0-.39356.03711,1.13647,1.13647,0,0,0-.35644.12793.78708.78708,0,0,0-.25879.23145.66189.66189,0,0,0,.01172.71972.80273.80273,0,0,0,.2959.22852,1.99051,1.99051,0,0,0,.41308.13867c.15234.03516.30567.07031.46094.10547q.28417.05273.53613.124a1.50489,1.50489,0,0,1,.43457.19434.88975.88975,0,0,1,.28906.31933,1.03322,1.03322,0,0,1,.10547.49512.88257.88257,0,0,1-.14258.51758,1.12032,1.12032,0,0,1-.36035.32617,1.53894,1.53894,0,0,1-.4834.17188,2.92182,2.92182,0,0,1-.52148.04882,2.07426,2.07426,0,0,1-.61133-.08593,1.39094,1.39094,0,0,1-.49121-.2627,1.246,1.246,0,0,1-.33008-.43164,1.46583,1.46583,0,0,1-.12793-.5918Z"/><path d="M74.0311,56.07915a1.1855,1.1855,0,0,0,.12011.47559,1.14078,1.14078,0,0,0,.668.57422,1.5354,1.5354,0,0,0,.48731.07519,2.58986,2.58986,0,0,0,.40136-.03418,1.37776,1.37776,0,0,0,.39747-.124.825.825,0,0,0,.30371-.251.6638.6638,0,0,0,.12011-.4082.60572.60572,0,0,0-.19531-.48828,1.3828,1.3828,0,0,0-.49121-.25488,4.98267,4.98267,0,0,0-.63769-.14551,3.351,3.351,0,0,1-.6377-.169,1.29941,1.29941,0,0,1-.49121-.31933.99976.99976,0,0,1-.06738-1.08008.968.968,0,0,1,.32617-.30273,1.52382,1.52382,0,0,1,.44629-.16114,2.57917,2.57917,0,0,1,.49511-.04883,2.25386,2.25386,0,0,1,.5625.06739,1.24257,1.24257,0,0,1,.45411.21777,1.03737,1.03737,0,0,1,.2998.38184,1.3255,1.3255,0,0,1,.1084.5625h-.28418a1.07,1.07,0,0,0-.08691-.4502.7819.7819,0,0,0-.24024-.30371,1.07863,1.07863,0,0,0-.36328-.17187,1.74951,1.74951,0,0,0-.4502-.05567,2.1721,2.1721,0,0,0-.39355.03711,1.13653,1.13653,0,0,0-.35645.12793.78714.78714,0,0,0-.25878.23145.57959.57959,0,0,0-.10059.34472.58547.58547,0,0,0,.1123.375.8029.8029,0,0,0,.2959.22852,1.9908,1.9908,0,0,0,.41309.13867c.15234.03516.30566.07031.46094.10547q.28417.05273.53613.124a1.50489,1.50489,0,0,1,.43457.19434.88975.88975,0,0,1,.28906.31933,1.03334,1.03334,0,0,1,.10547.49512.88257.88257,0,0,1-.14258.51758,1.12032,1.12032,0,0,1-.36035.32617,1.539,1.539,0,0,1-.4834.17188,2.92182,2.92182,0,0,1-.52148.04882,2.07426,2.07426,0,0,1-.61133-.08593,1.39094,1.39094,0,0,1-.49121-.2627,1.246,1.246,0,0,1-.33008-.43164,1.46566,1.46566,0,0,1-.12793-.5918Z"/><path d="M77.87094,55.47173v.04492a2.26431,2.26431,0,0,0,.08984.64453,1.66282,1.66282,0,0,0,.26661.54,1.26083,1.26083,0,0,0,.44433.36719,1.34594,1.34594,0,0,0,.62012.13574,1.32371,1.32371,0,0,0,.917-.30371,1.59286,1.59286,0,0,0,.4668-.84375h.28515a1.72957,1.72957,0,0,1-.55175,1.03516,1.676,1.676,0,0,1-1.1211.35937,1.69938,1.69938,0,0,1-.74609-.15332,1.52358,1.52358,0,0,1-.53223-.41992,1.79228,1.79228,0,0,1-.31933-.62988,2.84512,2.84512,0,0,1-.1045-.78418,2.75675,2.75675,0,0,1,.1084-.77637,1.9589,1.9589,0,0,1,.32617-.65234,1.626,1.626,0,0,1,.544-.44922,1.80856,1.80856,0,0,1,1.48535-.01856,1.50883,1.50883,0,0,1,.52051.40723,1.80841,1.80841,0,0,1,.31934.60059,2.40485,2.40485,0,0,1,.10839.73144c0,.02442-.001.05371-.0039.08594-.002.03223-.00391.05859-.00391.0791Zm2.835-.248a2.35522,2.35522,0,0,0-.10547-.5957,1.49387,1.49387,0,0,0-.2666-.49512,1.31538,1.31538,0,0,0-.42871-.34082,1.26283,1.26283,0,0,0-.57617-.127,1.351,1.351,0,0,0-.6084.13086,1.38548,1.38548,0,0,0-.44434.34375,1.53412,1.53412,0,0,0-.27734.499,2.3531,2.3531,0,0,0-.12109.585Z"/><path d="M81.92075,53.50689h.28515v.82422h.01465a1.22845,1.22845,0,0,1,.21387-.38575,1.46257,1.46257,0,0,1,.32226-.28808,1.43077,1.43077,0,0,1,.40137-.17969,1.66069,1.66069,0,0,1,.44238-.06055,1.75733,1.75733,0,0,1,.57422.083,1.10194,1.10194,0,0,1,.38574.21778,1.02684,1.02684,0,0,1,.23633.30273,1.40725,1.40725,0,0,1,.124.34082,1.96631,1.96631,0,0,1,.04492.334c.00488.10743.00781.20118.00781.28125v2.38477h-.28516v-2.4375c0-.09473-.00781-.21484-.02246-.36035a1.095,1.095,0,0,0-.13086-.416.95143.95143,0,0,0-.33007-.33984,1.11716,1.11716,0,0,0-.61133-.14258,1.355,1.355,0,0,0-.585.12012,1.26629,1.26629,0,0,0-.43555.332,1.46493,1.46493,0,0,0-.27344.51074,2.13628,2.13628,0,0,0-.09375.64844v2.085h-.28515Z"/><polygon class="cls-1" points="1.417 6.374 9.901 1.476 9.901 11.272 1.417 16.17 1.417 6.374"/><polygon class="cls-2" points="19.184 6.374 10.701 1.476 10.7 11.272 19.184 16.17 19.184 6.374"/><polygon points="1.817 16.863 10.301 11.964 10.301 11.964 18.785 16.863 10.301 21.761 10.301 21.761 1.817 16.863"/></svg>